<svg xmlns="http://www.w3.org/2000/svg" xmlns:xlink="http://www.w3.org/1999/xlink" width="370" height="370" viewBox="0 0 370 370">
  <defs>
    <filter id="Path_25" x="30.5" y="156.97" width="309.2" height="158" filterUnits="userSpaceOnUse">
      <feOffset dy="-4" input="SourceAlpha"/>
      <feGaussianBlur stdDeviation="3.5" result="blur"/>
      <feFlood flood-opacity="0.4"/>
      <feComposite operator="in" in2="blur"/>
      <feComposite in="SourceGraphic"/>
    </filter>
  </defs>
  <g id="barcuino-logo-round" transform="translate(-134.9 -182.39)">
    <rect id="Rectangle_160" data-name="Rectangle 160" width="370" height="370" rx="185" transform="translate(134.9 182.39)" fill="#141414"/>
    <path id="Path_24" data-name="Path 24" d="M425.568,335.647Q369.489,222.629,248.67,201.39v60.274l.132,77.743" transform="translate(0 38.645)" fill="#141414" stroke="#006a9d" stroke-width="24"/>
    <g transform="matrix(1, 0, 0, 1, 134.9, 182.39)" filter="url(#Path_25)">
      <path id="Path_25-2" data-name="Path 25" d="M464.1,422.36c0-37.8-31.9-68.5-71-68.5a66.65,66.65,0,0,0-10.9.8c-30.4,4.3-50.8,26.2-62.2,43-11.4-16.8-31.8-38.7-62.2-43a79.94,79.94,0,0,0-10.9-.8c-39.2,0-71,30.7-71,68.5s31.9,68.5,71,68.5a68.691,68.691,0,0,0,11-.8c30.4-4.4,50.8-26.3,62.2-43.1,11.4,16.8,31.8,38.7,62.2,43.1a80.235,80.235,0,0,0,11,.8c38.9,0,70.8-30.7,70.8-68.5m-209.8,43.7a47.263,47.263,0,0,1-7.5.5c-25.8,0-46.7-19.9-46.7-44.2,0-24.4,21-44.2,46.8-44.2a62.969,62.969,0,0,1,7.5.5c28.7,4.1,46.2,32.4,52.2,43.7-6.1,11.4-23.7,39.6-52.3,43.7m79.1-43.7c5.9-11.3,23.5-39.6,52.2-43.7a62.969,62.969,0,0,1,7.5-.5c25.8,0,46.7,19.9,46.7,44.2,0,24.4-21,44.2-46.7,44.2a62.976,62.976,0,0,1-7.5-.5c-28.7-4.1-46.3-32.4-52.2-43.7" transform="translate(-134.9 -182.39)" fill="#fff"/>
    </g>
    <path id="Path_27" data-name="Path 27" d="M270,422.36H227" fill="#141414" stroke="#fff" stroke-width="14"/>
    <path id="Path_28" data-name="Path 28" d="M397.14,400.2h.03l.03.01h.03l.03.01.02.01h.03l.03.01.03.01.02.02.03.01.02.01.03.02.02.01.02.02.03.02.02.01.02.02.02.02.02.02.02.02.02.03.01.02.02.02.02.03.01.02.01.03.02.02.01.03.01.02.01.03.01.03.01.03v.03l.01.03v.05l.01.03v14.81h14.8l.04.01h.05l.03.01h.03l.03.01.03.01.03.01.02.01.03.01.02.02.03.01.02.01.03.02.02.02.02.01.03.02.02.02.02.02.02.02.02.02.01.02.02.03.02.02.01.02.02.03.01.02.01.03.02.02.01.03.01.03v.03l.01.02.01.03v.03l.01.03v12l-.01.03v.03l-.01.03-.01.03v.03l-.01.02-.01.03-.02.03-.01.02-.01.03-.02.02-.01.03-.02.02-.02.02-.01.02-.02.03-.02.02-.02.02-.02.01-.03.02-.02.02-.02.02-.03.01-.02.02-.03.01-.02.01-.03.01-.02.02-.03.01h-.03l-.03.01-.03.01h-.03l-.03.01H397.82v14.81l-.01.03v.06l-.01.03v.03l-.01.03-.01.02-.01.03-.01.03-.01.02-.02.03-.01.03-.01.02-.02.02-.02.03-.01.02-.02.02-.02.02-.02.02-.02.02-.02.02-.02.02-.03.02-.02.01-.02.02-.03.01-.02.02-.03.01-.02.01-.03.01-.03.01-.03.01-.02.01h-.03l-.03.01h-.03l-.03.01H385.19l-.02-.01h-.03l-.03-.01h-.03l-.03-.01-.03-.01-.03-.01-.02-.01-.03-.01-.02-.01-.03-.02-.02-.01-.03-.02-.02-.01-.02-.02-.03-.02-.02-.02-.02-.02-.02-.02-.02-.02-.01-.02-.02-.02-.02-.03-.01-.02-.02-.02-.01-.03-.01-.03-.02-.02-.01-.03-.01-.03V444l-.01-.03-.01-.03v-.03l-.01-.03V429.01H369.65l-.03-.01h-.03l-.03-.01-.03-.01h-.02l-.03-.01-.03-.02-.02-.01-.03-.01-.03-.01-.02-.02-.02-.01-.03-.02-.02-.02-.02-.02-.02-.01-.02-.02-.02-.02-.02-.03-.02-.02-.02-.02-.01-.02-.02-.03-.01-.02-.02-.03-.01-.02-.01-.03-.01-.03-.01-.02-.01-.03-.01-.03v-.03l-.01-.03v-.03l-.01-.03V416.39l.01-.03v-.03l.01-.03v-.03l.01-.02.01-.03.01-.03.01-.03.01-.02.01-.03.02-.02.01-.03.02-.02.01-.02.02-.03.02-.02.02-.02.02-.02.02-.02.02-.02.02-.02.02-.01.03-.02.02-.02.02-.01.03-.01.03-.02.02-.01.03-.01.03-.01.02-.01.03-.01h.03l.03-.01h.06l.03-.01h14.81V400.84l.01-.02v-.03l.01-.03.01-.03v-.03l.01-.03.01-.02.02-.03.01-.02.01-.03.02-.02.01-.03.02-.02.02-.02.01-.03.02-.02.02-.02.02-.02.02-.02.03-.01.02-.02.02-.02.03-.01.02-.02.03-.01.02-.01.03-.02.02-.01.03-.01h.03l.03-.01.03-.01h.03l.03-.01h11.97Z" fill="#fff"/>
  </g>
</svg>
